PathFileType	4	(X/Y/Z)	 s11c0401.trc
DataRate	CameraRate	NumFrames	NumMarkers	Units	OrigDataRate	OrigDataStartFrame	OrigNumFrames
200	200	4	48	mm	200	251	2000
Frame#	Time	racr			lacr			c7			jug			rlel			rdr			llel			ldr			s2			lic			ric			lasi			rasi			rpsi			lpsi			rgt			lgt			rth1			rth2			rth3			rth4			rlfc			rmfc			rsh1			rsh2			rsh3			rsh4			rlmal			rcal			rtoe			rmt5			lth1			lth2			lth4			lth3			llfc			lmfc			llmal			lcal			lmt5			lsh1			lsh2			lsh3			lsh4			ltoe			SBIKE			LBIKE			RBIKE			
		X1	Y1	Z1	X2	Y2	Z2	X3	Y3	Z3	X4	Y4	Z4	X5	Y5	Z5	X6	Y6	Z6	X7	Y7	Z7	X8	Y8	Z8	X9	Y9	Z9	X10	Y10	Z10	X11	Y11	Z11	X12	Y12	Z12	X13	Y13	Z13	X14	Y14	Z14	X15	Y15	Z15	X16	Y16	Z16	X17	Y17	Z17	X18	Y18	Z18	X19	Y19	Z19	X20	Y20	Z20	X21	Y21	Z21	X22	Y22	Z22	X23	Y23	Z23	X24	Y24	Z24	X25	Y25	Z25	X26	Y26	Z26	X27	Y27	Z27	X28	Y28	Z28	X29	Y29	Z29	X30	Y30	Z30	X31	Y31	Z31	X32	Y32	Z32	X33	Y33	Z33	X34	Y34	Z34	X35	Y35	Z35	X36	Y36	Z36	X37	Y37	Z37	X38	Y38	Z38	X39	Y39	Z39	X40	Y40	Z40	X41	Y41	Z41	X42	Y42	Z42	X43	Y43	Z43	X44	Y44	Z44	X45	Y45	Z45	X46	Y46	Z46	X47	Y47	Z47	X48	Y48	Z48	
251	1.2550	457.919740	1425.284146	-90.097818	494.560489	1448.124277	-408.180541	392.072790	1533.279487	-261.991815	441.944115	1366.577275	-258.803896	535.690691	1164.679976	2.474457	763.796986	966.443576	-50.925539	530.973856	1164.659630	-543.340334	772.762034	952.558411	-459.720489	-124.023022	1204.014794	-270.030619	97.755158	1205.167922	-472.393289	94.449274	1247.119393	-75.123472	132.815839	1140.495789	-437.627574	120.149278	1192.855192	-120.906908	-85.307897	1286.449130	-227.438984	-85.113416	1267.149406	-322.155892	64.994795	1129.339437	-46.224011	-3.632993	1063.778066	-468.681497	198.509334	1082.442366	-45.971209	286.767370	1081.486480	-58.419880	361.547767	1036.740212	-66.730599	295.222014	1114.734877	-73.188170	463.540445	994.336789	-81.696982	464.038179	968.315932	-211.809257	397.400419	847.763276	-68.257006	373.553975	764.242369	-86.875049	313.529468	701.373601	-85.808510	396.589108	754.866382	-117.438297	232.869637	595.000099	-93.890478	164.489875	592.090525	-142.324099	432.174619	489.615837	-131.847959	356.500669	481.271112	-64.190015	85.206668	942.109886	-483.454526	147.585877	883.773359	-482.494327	179.766801	902.089643	-481.826065	173.869557	798.025899	-472.981362	240.592787	676.906119	-449.766255	264.263282	674.702822	-323.318971	72.671267	279.595621	-409.791576	13.318202	243.431829	-374.193545	206.260442	167.552155	-444.419732	187.296795	562.255036	-464.662774	179.481834	478.018082	-446.159801	129.612970	405.812615	-438.035780	209.478435	471.438488	-423.592901	304.445875	178.971441	-376.629226	-206.666912	958.573945	-263.336944	1.356973	82.467663	-460.880573	-15.313987	81.072035	-62.582709	
252	1.2600	457.769631	1424.090446	-90.062620	494.839578	1447.488384	-406.037461	392.214565	1532.242329	-261.042280	441.270952	1364.938733	-258.066847	534.967604	1164.242045	3.840209	763.866209	967.167334	-51.926964	531.826472	1165.253973	-543.389446	772.944929	952.680443	-459.293036	-123.995036	1203.891619	-271.175461	97.301178	1206.004628	-473.164189	93.534665	1247.518775	-75.430097	132.318016	1141.144016	-438.831409	119.237560	1193.418161	-121.681734	-85.920462	1286.851711	-228.213126	-85.652126	1267.400564	-322.756793	64.245404	1130.363982	-46.640494	-3.788751	1064.399908	-469.485974	197.921825	1083.671313	-46.347510	286.111297	1082.840730	-58.891989	360.924083	1038.061467	-67.038715	294.512007	1115.874018	-73.884947	462.976784	995.362448	-81.884822	464.349603	969.448640	-212.264872	399.331945	847.530827	-68.332010	376.675936	763.712123	-87.036305	317.654069	699.896334	-85.967306	399.953299	754.681996	-117.525789	237.981141	592.140862	-93.641894	169.740569	588.882610	-142.142176	437.937053	487.724080	-132.001571	362.374608	479.007911	-64.331226	85.835808	943.277345	-484.394415	148.355160	885.153913	-483.541529	180.498304	903.638085	-482.883589	174.912338	799.506142	-474.347195	241.683636	678.431111	-451.534385	266.270647	676.112062	-325.026277	68.991376	283.757634	-410.061413	9.187958	248.563999	-374.624848	200.953686	169.866746	-444.572187	187.172662	564.646518	-466.035325	178.183183	480.585234	-447.377698	127.309923	409.076986	-439.033629	208.153029	473.583601	-424.903143	299.295826	179.937546	-376.817968	-206.685242	958.523103	-263.556910	1.343858	82.478631	-460.916227	-15.340210	81.084531	-62.603633	
253	1.2650	457.617003	1423.064654	-89.722085	495.140160	1446.969406	-404.187230	392.486699	1531.157764	-260.010716	440.837619	1363.311039	-257.330441	534.002843	1163.397208	5.551448	763.786272	967.925353	-52.867650	532.725566	1166.023676	-543.495418	772.931967	952.752823	-458.609280	-124.658368	1204.247683	-271.790712	96.937261	1206.767439	-473.721680	92.660860	1247.725952	-75.668895	131.834077	1141.625465	-439.849555	118.360173	1193.742932	-122.370979	-86.460908	1287.233682	-229.079583	-85.885247	1267.859864	-323.385677	63.430142	1131.471822	-47.066568	-3.811117	1065.069889	-470.034677	197.286985	1084.690777	-46.682596	285.367493	1083.913972	-59.368262	360.239965	1039.042300	-67.290776	293.714539	1116.899479	-74.420406	462.309706	996.101148	-81.925395	464.665362	970.442993	-212.795514	400.971593	847.070275	-68.508942	379.503019	763.137935	-87.185133	321.281289	698.503267	-86.246263	402.967014	754.326271	-117.579458	242.926508	588.991926	-93.474021	174.810073	585.400487	-141.974754	443.566854	485.593875	-132.006856	368.036985	476.602328	-64.419679	86.512255	944.591083	-485.413064	149.215586	886.615250	-484.648811	181.278458	905.144578	-483.908219	175.977614	800.990392	-475.669979	242.786720	680.100641	-453.248980	267.589456	677.817613	-326.674335	65.698128	288.133913	-410.544449	5.234015	253.897472	-374.858218	195.856449	172.381666	-444.711508	187.267571	567.050435	-467.378289	177.268085	483.142814	-448.465031	125.479933	412.313351	-439.831785	207.273128	475.933425	-426.108789	294.224860	180.996012	-376.966197	-206.722549	958.557023	-263.211246	1.360979	82.442131	-460.928433	-15.335998	81.110036	-62.624541	
254	1.2700	457.542918	1421.940524	-89.108828	495.532877	1446.569158	-402.752732	392.757436	1530.230570	-259.076301	440.636163	1361.655296	-256.681112	532.913587	1162.261123	7.640287	763.575410	968.825324	-53.525465	533.581819	1166.626857	-543.764827	772.800240	952.828613	-457.892294	-127.188524	1205.346511	-271.075447	96.597816	1207.562240	-474.030959	91.798929	1247.808984	-75.863550	131.500682	1142.321701	-441.006942	117.533255	1193.916320	-123.012888	-86.905112	1287.617689	-229.961662	-86.173606	1268.334863	-324.108216	62.643971	1132.106313	-47.509691	-3.722707	1065.869504	-470.732181	196.623879	1085.586079	-47.039023	284.644549	1084.454034	-59.831026	359.427534	1039.653613	-67.638109	292.907691	1117.506668	-74.994625	461.609851	996.289092	-82.322430	465.050654	970.915718	-213.477472	402.432559	846.476249	-68.762429	382.032419	762.116771	-87.188022	324.506008	696.951163	-86.462151	405.776482	753.524063	-117.536057	247.664756	585.455097	-93.318328	179.380211	581.410645	-141.926569	449.018645	483.400464	-132.016778	373.572379	473.933774	-64.422895	87.152892	945.901081	-486.526525	150.072089	888.137429	-485.846196	182.045969	906.756330	-485.010547	177.069994	802.519857	-477.072049	243.837225	681.861610	-454.973101	268.424788	679.711507	-328.310002	62.580138	292.738936	-411.332084	1.411337	259.538592	-374.955659	190.751593	175.106221	-444.780567	187.695298	569.521895	-468.654444	176.775408	485.788276	-449.334397	124.181504	415.645317	-440.444461	206.664379	478.307157	-426.969359	289.301832	182.139278	-377.119468	-206.735986	958.556905	-263.370959	1.337691	82.435767	-460.932810	-15.346950	81.115119	-62.648640	
